<svg id="Blue" xmlns="http://www.w3.org/2000/svg" viewBox="0 0 250 200"><defs><style>.cls-1{fill:#f0edf4;}.cls-2{fill:#cce0f2;}.cls-13,.cls-3{fill:#004a8f;}.cls-4{fill:#3cb5db;}.cls-5{fill:#608f0e;}.cls-6{fill:#ff4800;}.cls-7{fill:#fff;}.cls-8{fill:#b9e4f2;}.cls-9{fill:#b08b85;}.cls-10{fill:#0063be;}.cls-11{fill:#c6a197;}.cls-12{opacity:0.8;}.cls-13{opacity:0.35;}.cls-14{fill:#d5daed;}</style></defs><path class="cls-1" d="M179.93094,31.46705C151.54831-22.30618,124.64024,16.24274,76.26447,3.86331,53.67438-1.91753-3.80931,16.37029,19.31823,42.562,50.29876,77.64714.58612,89.47874,2.28676,122.07454c2.4996,47.90939,40.24065,93.093,60.12,70.01621,10.62285-12.33147,15.7264-55.64981,27.84346-62.71859,11.22963-6.55107,23.00082-.3638,32.62591,11.52828,9.1169,11.26419,16.328,50.82682,28.54888,55.67141,19.78184,7.84193,44.70522-47.38378,86.86805-56.01378,30.10279-6.16151-18.49171-16.244-28.38263-34.1684-7.22291-13.08944,21.38974-33.495,18.57854-45.77227C221.17831,28.68954,188.13037,47.00154,179.93094,31.46705Z"/><path class="cls-2" d="M167.03489,96.35283v79.3453a9.09468,9.09468,0,0,1-9.068,9.068H33.28138a9.09468,9.09468,0,0,1-9.068-9.068V96.35283Z"/><path class="cls-3" d="M35.77509,185.24079c-3.02734,0-8.43457-3.52539-8.43457-10.5498V113.93806c0-8.48047-3.332-17.08985-3.36621-17.17579L24.906,96.397c.03418.08789,3.43457,8.86719,3.43457,17.541V174.691c0,6.35839,4.7666,9.5498,7.43457,9.5498Z"/><path class="cls-3" d="M37.73993,185.24079c-3.957,0-7.94921-3.72656-7.94921-12.05078-.00293-.3916-.252-39.71289,0-58.80274.15332-11.64648-5.63965-17.3916-5.69825-17.44824l.69434-.71972c.252.24218,6.16309,6.07519,6.00391,18.18164-.252,19.08007-.00293,58.39062,0,58.78613,0,7.63672,3.49023,11.05371,6.94921,11.05371Z"/><path class="cls-3" d="M39.70478,185.24079c-5.02246,0-7.46387-4.43262-7.46387-13.55176-.0039-.37207-.43359-37.96679,0-56.84961C32.57978,100.05524,24.363,97.08161,24.28,97.05329l.31836-.94824c.36817.123,8.999,3.1875,8.64258,18.75781-.43359,18.86523-.00488,56.44336,0,56.82031,0,8.45215,2.11426,12.55762,6.46387,12.55762Z"/><path class="cls-3" d="M41.66962,185.24079c-5.90039,0-6.97949-5.06934-6.97949-15.05176-.00586-.35156-.582-36.21972,0-54.89648.21875-7.00684-1.19824-12.14551-4.21387-15.27149a9.27483,9.27483,0,0,0-6.03711-2.9414l.001-1a10.10167,10.10167,0,0,1,6.73535,3.22558c3.22363,3.3252,4.74219,8.71485,4.51465,16.01856-.582,18.65332-.00586,54.49707,0,54.85742,0,10.77637,1.39746,14.05957,5.97949,14.05957Z"/><rect class="cls-3" x="80.88856" y="15.42062" width="76.39819" height="6.57433" rx="3.28716"/><rect class="cls-3" x="93.5799" y="26.75566" width="51.01551" height="1.58691" rx="0.79345"/><path class="cls-3" d="M110.813,37.84409H80.88856a.43346.43346,0,0,1,0-.86691H110.813a.43346.43346,0,1,1,0,.86691Z"/><path class="cls-3" d="M96.75771,74.41282h-63.023a.43346.43346,0,1,1,0-.86691h63.023a.43346.43346,0,0,1,0,.86691Z"/><path class="cls-3" d="M104.01215,53.08549H80.88856a.43346.43346,0,0,1,0-.86691h23.12359a.43346.43346,0,1,1,0,.86691Z"/><path class="cls-3" d="M127.58888,52.83H113.08a.43346.43346,0,0,1,0-.86691h14.50889a.43346.43346,0,0,1,0,.86691Z"/><circle class="cls-3" cx="83.06685" cy="43.37849" r="2.46167"/><circle class="cls-3" cx="91.11286" cy="43.37849" r="2.46167"/><circle class="cls-3" cx="99.15886" cy="43.37849" r="2.46167"/><circle class="cls-3" cx="107.20487" cy="43.37849" r="2.46167"/><circle class="cls-3" cx="115.25087" cy="43.37849" r="2.46167"/><circle class="cls-3" cx="123.29688" cy="43.37849" r="2.46167"/><circle class="cls-3" cx="131.34288" cy="43.37849" r="2.46167"/><circle class="cls-3" cx="139.38889" cy="43.37849" r="2.46167"/><circle class="cls-3" cx="147.43489" cy="43.37849" r="2.46167"/><circle class="cls-3" cx="155.4809" cy="43.37849" r="2.46167"/><circle class="cls-3" cx="83.06685" cy="58.54941" r="2.46167"/><circle class="cls-3" cx="91.11286" cy="58.54941" r="2.46167"/><circle class="cls-3" cx="99.15886" cy="58.54941" r="2.46167"/><circle class="cls-3" cx="115.25087" cy="58.54941" r="2.46167"/><circle class="cls-3" cx="123.29688" cy="58.54941" r="2.46167"/><path class="cls-4" d="M115.25552,167.09405a.43355.43355,0,0,1-.24424-.792l4.35825-2.96477a.435.435,0,0,1,.31451-.069l5.02981.83093,4.21476-2.86741a.43938.43938,0,0,1,.31451-.069l5.02981.83093,4.215-2.8674a.43744.43744,0,0,1,.3145-.069l5.0296.83051,4.215-2.867a.43729.43729,0,0,1,.31451-.069l5.20061.85886a.43333.43333,0,1,1-.14138.85506l-5.0296-.83051-4.215,2.867a.433.433,0,0,1-.31451.069l-5.02938-.8305-4.21518,2.8674a.43234.43234,0,0,1-.31451.069l-5.02981-.83093-4.21476,2.86741a.43079.43079,0,0,1-.31451.069l-5.0296-.83093-4.215,2.86741A.43157.43157,0,0,1,115.25552,167.09405Z"/><path class="cls-4" d="M116.41345,172.35139a.43356.43356,0,0,1-.24425-.792l4.35847-2.96434a.43545.43545,0,0,1,.31451-.069l5.0296.83051,4.215-2.867a.4393.4393,0,0,1,.31451-.069l5.02939.83051,4.21518-2.86741a.43962.43962,0,0,1,.31451-.069l5.0296.83093,4.215-2.8674a.435.435,0,0,1,.31451-.069l5.20082.85887a.43333.43333,0,1,1-.14138.855l-5.0296-.8305-4.21518,2.8674a.433.433,0,0,1-.31451.069l-5.0296-.83093-4.215,2.86741a.43232.43232,0,0,1-.31451.069l-5.0296-.8305-4.215,2.867a.43505.43505,0,0,1-.31451.069l-5.0296-.83051-4.215,2.867A.43145.43145,0,0,1,116.41345,172.35139Z"/><path class="cls-4" d="M117.57158,177.60914a.43355.43355,0,0,1-.24424-.792l4.35847-2.96477a.43936.43936,0,0,1,.3145-.069l5.0296.83093,4.215-2.8674a.43567.43567,0,0,1,.31451-.069l5.0296.83051,4.215-2.867a.43905.43905,0,0,1,.31451-.069l5.02938.83051,4.21518-2.86741a.43962.43962,0,0,1,.31451-.069l5.20061.85929a.43333.43333,0,1,1-.14138.85506l-5.0296-.83093-4.215,2.86741a.43036.43036,0,0,1-.31451.069l-5.0296-.8305-4.215,2.867a.43482.43482,0,0,1-.31451.069l-5.02939-.83051-4.21518,2.86741a.43523.43523,0,0,1-.3145.069l-5.0296-.83093-4.215,2.86741A.43153.43153,0,0,1,117.57158,177.60914Z"/><path class="cls-5" d="M82.15464,168.66109a26.20534,26.20534,0,1,1,8.86381-1.55688A26.04367,26.04367,0,0,1,82.15464,168.66109Zm-.00592-50.11694a23.96877,23.96877,0,1,0,22.5752,15.8556A23.858,23.858,0,0,0,82.14872,118.54415Z"/><path class="cls-5" d="M82.19126,162.43145a19.91812,19.91812,0,1,1,18.72215-26.66065h0a19.91977,19.91977,0,0,1-18.72215,26.66065Zm-.03768-38.9703a19.05121,19.05121,0,1,0,17.94414,12.603h0A19.08406,19.08406,0,0,0,82.15358,123.46115Z"/><path class="cls-6" d="M83.42261,130.88806a7.87963,7.87963,0,0,0-4.05231,3.83361,7.697,7.697,0,0,0-5.5337-.38508c-4.031,1.45012-6.29733,5.8558-4.9492,9.62108a12.52843,12.52843,0,0,0,2.30142,3.84474c5.03459,5.69372,14.35458,5.8035,14.74908,5.80538a.61715.61715,0,0,0,.39844-.14334c.304-.25317,7.45191-6.28656,7.70182-13.83322a12.23975,12.23975,0,0,0-.70745-4.471A7.77908,7.77908,0,0,0,83.42261,130.88806Z"/><rect class="cls-7" x="24.66675" y="78.67016" width="142.37837" height="17.68267"/><path class="cls-3" d="M31.73208,86.81806l3.57-2.23859.27336,1.21718-2.77482,1.647L35.57545,89.091l-.27336,1.21685-3.57-2.23826Z"/><path class="cls-3" d="M38.09394,86.81806l3.57-2.23859.27336,1.21718-2.77483,1.647L41.93732,89.091,41.664,90.30787l-3.57-2.23826Z"/><path class="cls-3" d="M44.45548,86.81806l3.57-2.23859.27336,1.21718-2.77482,1.647L48.29885,89.091l-.27336,1.21685-3.57-2.23826Z"/><path class="cls-3" d="M50.81734,86.81806l3.57-2.23859.27336,1.21718-2.77483,1.647L54.66072,89.091l-.27336,1.21685-3.57-2.23826Z"/><path class="cls-3" d="M57.17921,86.81806l3.57-2.23859.27336,1.21718-2.77482,1.647L61.02258,89.091l-.27336,1.21685-3.57-2.23826Z"/><path class="cls-3" d="M63.54107,86.81806l3.57-2.23859.27335,1.21718-2.77482,1.647L67.38444,89.091l-.27335,1.21685-3.57-2.23826Z"/><path class="cls-3" d="M69.90261,86.81806l3.57-2.23859.27336,1.21718-2.77482,1.647L73.746,89.091l-.27336,1.21685-3.57-2.23826Z"/><path class="cls-3" d="M76.26447,86.81806l3.57-2.23859.27336,1.21718-2.77483,1.647L80.10785,89.091l-.27336,1.21685-3.57-2.23826Z"/><path class="cls-3" d="M82.62634,86.81806l3.57-2.23859.27336,1.21718-2.77482,1.647L86.46971,89.091l-.27336,1.21685-3.57-2.23826Z"/><path class="cls-3" d="M88.98787,86.81806l3.57-2.23859.27336,1.21718-2.77483,1.647L92.83125,89.091l-.27336,1.21685-3.57-2.23826Z"/><path class="cls-3" d="M95.34974,86.81806l3.57-2.23859.27336,1.21718-2.77482,1.647L99.19311,89.091l-.27336,1.21685-3.57-2.23826Z"/><path class="cls-3" d="M101.7116,86.81806l3.57-2.23859.27335,1.21718-2.77482,1.647L105.555,89.091l-.27335,1.21685-3.57-2.23826Z"/><path class="cls-3" d="M108.07347,86.81806l3.57-2.23859.27336,1.21718-2.77483,1.647,2.77483,1.64735-.27336,1.21685-3.57-2.23826Z"/><path class="cls-3" d="M114.435,86.81806l3.57-2.23859.27336,1.21718-2.77483,1.647,2.77483,1.64735-.27336,1.21685-3.57-2.23826Z"/><path class="cls-3" d="M120.79687,86.81806l3.57-2.23859.27336,1.21718-2.77482,1.647,2.77482,1.64735-.27336,1.21685-3.57-2.23826Z"/><path class="cls-3" d="M127.15873,86.81806l3.57-2.23859.27335,1.21718-2.77482,1.647L131.0021,89.091l-.27335,1.21685-3.57-2.23826Z"/><path class="cls-3" d="M133.52027,86.81806l3.57-2.23859.27336,1.21718-2.77482,1.647,2.77482,1.64735-.27336,1.21685-3.57-2.23826Z"/><path class="cls-3" d="M139.88213,86.81806l3.57-2.23859.27335,1.21718-2.77482,1.647L143.7255,89.091l-.27335,1.21685-3.57-2.23826Z"/><path class="cls-3" d="M146.244,86.81806l3.57-2.23859.27336,1.21718-2.77483,1.647,2.77483,1.64735-.27336,1.21685-3.57-2.23826Z"/><path class="cls-3" d="M152.60586,86.81806l3.57-2.23859.27335,1.21718-2.77482,1.647,2.77482,1.64735-.27335,1.21685-3.57-2.23826Z"/><path class="cls-3" d="M158.9674,86.81806l3.57-2.23859.27336,1.21718-2.77482,1.647,2.77482,1.64735-.27336,1.21685-3.57-2.23826Z"/><path class="cls-3" d="M157.9665,185.76618H33.281a10.07949,10.07949,0,0,1-10.06738-10.06836V17.00739A10.07949,10.07949,0,0,1,33.281,6.939H157.9665a10.0797,10.0797,0,0,1,10.06836,10.06836,1,1,0,1,1-2,0A8.0771,8.0771,0,0,0,157.9665,8.939H33.281a8.07689,8.07689,0,0,0-8.06738,8.06836V175.69782a8.07689,8.07689,0,0,0,8.06738,8.06836H157.9665a8.0771,8.0771,0,0,0,8.06836-8.06836V78.54938a1,1,0,0,1,2,0v97.14844A10.0797,10.0797,0,0,1,157.9665,185.76618Z"/><rect class="cls-8" x="33.05468" y="15.19391" width="41.90219" height="48.28728" rx="7.98137"/><path class="cls-9" d="M39.31455,47.52474l2.73282,12.45495a15.766,15.766,0,0,1,.30246,3.50151h3.27906a29.33076,29.33076,0,0,0,.46394-4.04257c.33445-3.861-2.55482-15.28976-2.55482-15.28976a5.67555,5.67555,0,0,0-3.5644,1.12439A2.35556,2.35556,0,0,0,39.31455,47.52474Z"/><path class="cls-9" d="M68.07472,47.52474,65.3419,59.97969a22.38261,22.38261,0,0,0-.3664,3.50151H61.76038a29.33359,29.33359,0,0,1-.46394-4.04257c-.33444-3.861,2.55483-15.28976,2.55483-15.28976a5.67555,5.67555,0,0,1,3.5644,1.12439A2.35554,2.35554,0,0,1,68.07472,47.52474Z"/><path class="cls-10" d="M60.67057,41.79443c2.95134.50793,4.564.0862,5.44505-.5197a2.47155,2.47155,0,0,1,3.27307.52058c1.04727,1.27665,1.83646,2.78279.65156,3.57692a15.406,15.406,0,0,0-4.58213,5.74653C62.244,60.12317,61.02258,63.4812,61.02258,63.4812H46.37717s-1.3-3.358-4.51409-12.36244A15.406,15.406,0,0,0,37.281,45.37223c-1.16977-.784-.41554-2.26192.61158-3.52791a2.49146,2.49146,0,0,1,3.32255-.51751c.88327.61792,2.495,1.03472,5.43555.46762A42.24371,42.24371,0,0,1,53.63,41.28424S58.93138,41.49511,60.67057,41.79443Z"/><path class="cls-9" d="M49.76663,41.57261a1.22941,1.22941,0,0,0-.62377,2.19245,8.72005,8.72005,0,0,0,5.09937,2.00881,5.68953,5.68953,0,0,0,4.70341-2.069,1.23135,1.23135,0,0,0-.81609-1.98883c-1.49477-.183-3.55-.41475-4.49954-.43178A37.32839,37.32839,0,0,0,49.76663,41.57261Z"/><path class="cls-9" d="M51.18112,41.89646v-8.163s-.13013.61222,2.66773.61222c2.24481,0,2.24479,1.49252,2.24479,1.49252l0,6.05822"/><path class="cls-3" d="M60.95444,26.09209s3.44845,7.64141,2.58663,12.97115c-.48536,3.00159-6.16925-.75949-6.16925-.75949L55.98954,25.96666Z"/><path class="cls-11" d="M59.79165,30.85441c.76744,3.56325-1.72852,8.41958-4.70172,8.41958s-6.74012-4.57726-5.41454-9.301c1.32021-4.70461,2.44135-8.394,5.41454-8.394S58.76284,26.0776,59.79165,30.85441Z"/><path class="cls-7" d="M53.21908,35.58045a2.01,2.01,0,0,0,1.75737,1.39547,1.86441,1.86441,0,0,0,1.59384-1.42332c-.01954-.38041-.76517-.15892-1.68509-.11168S53.19954,35.2,53.21908,35.58045Z"/><path class="cls-3" d="M52.9863,29.8748a1.851,1.851,0,0,1,.83275.30531.30137.30137,0,0,1-.33991.49774,1.33268,1.33268,0,0,0-1.63905.16406.30114.30114,0,1,1-.43578-.41574A1.89652,1.89652,0,0,1,52.9863,29.8748Z"/><path class="cls-3" d="M57.78387,29.794a1.85085,1.85085,0,0,1,.83275.30531.30137.30137,0,1,1-.33991.49774,1.33267,1.33267,0,0,0-1.639.16406.30114.30114,0,0,1-.43579-.41574A1.89653,1.89653,0,0,1,57.78387,29.794Z"/><path class="cls-3" d="M50.5692,28.79452a3.37092,3.37092,0,0,1,1.57165-.59829,3.93874,3.93874,0,0,1,1.67954.08021"/><path class="cls-3" d="M56.2222,28.3765a2.15725,2.15725,0,0,1,1.26773-.068,1.96445,1.96445,0,0,1,1.03151.56619"/><path class="cls-3" d="M51.321,39.06324c-.265-3.07383-2.65559-10.26872-.43632-10.76185,8.93216-1.98475,10.06975-2.2093,10.06975-2.2093s1.069-4.51309-3.52112-5.34882c-6.02-1.09607-12.01373-.10681-14.24629,6.80584-.86747,2.686.07274,9.30438,1.00929,10.295C45.33477,39.04823,51.55947,41.82929,51.321,39.06324Z"/><g class="cls-12"><path class="cls-7" d="M78.3126,140.40335a.431.431,0,0,1-.18308-.04063l-3.16181-1.4754-3.307,1.11242a.43352.43352,0,0,1-.3215-.018l-3.162-1.4754-3.30678,1.11242a.43157.43157,0,0,1-.32149-.018l-3.162-1.47539-3.30679,1.11242a.43162.43162,0,0,1-.32149-.018l-3.162-1.4754-3.307,1.11242a.43343.43343,0,0,1-.27641-.82162l3.47145-1.16766a.43252.43252,0,0,1,.32149.018l3.162,1.4754,3.30678-1.11242a.43149.43149,0,0,1,.3215.018l3.162,1.4754,3.30678-1.11243a.4317.4317,0,0,1,.3215.018l3.162,1.4754,3.307-1.11242a.43149.43149,0,0,1,.3215.018l3.31885,1.54863a.43346.43346,0,0,1-.1835.82627Z"/><path class="cls-7" d="M78.10307,144.13809a.43089.43089,0,0,1-.18308-.04064l-3.16181-1.47539-3.307,1.11242a.43271.43271,0,0,1-.3215-.018l-3.162-1.4754-3.30678,1.11242a.43256.43256,0,0,1-.3215-.018l-3.162-1.4754-3.30678,1.11221a.43146.43146,0,0,1-.32149-.018l-3.162-1.47518-3.307,1.11221a.43343.43343,0,1,1-.27641-.82162l3.47144-1.16745a.4316.4316,0,0,1,.3215.018l3.162,1.47519,3.30678-1.11221a.43149.43149,0,0,1,.3215.018l3.162,1.47539,3.30678-1.11242a.43151.43151,0,0,1,.32149.018l3.162,1.4754,3.307-1.11242a.43146.43146,0,0,1,.32149.018l3.31885,1.54863a.43346.43346,0,0,1-.18349.82627Z"/><path class="cls-7" d="M77.89353,147.87262a.43419.43419,0,0,1-.18307-.04064l-3.16181-1.47519-3.307,1.11243a.4377.4377,0,0,1-.32149-.01821l-3.162-1.47518-3.30678,1.11242a.43777.43777,0,0,1-.3215-.0182l-3.162-1.47519-3.307,1.11242a.43779.43779,0,0,1-.3215-.0182l-3.16181-1.4754-3.307,1.11264a.43364.43364,0,0,1-.27642-.822l3.47145-1.16745a.43048.43048,0,0,1,.3215.018l3.1618,1.47539,3.307-1.1122a.43157.43157,0,0,1,.32149.018l3.162,1.47518,3.30679-1.11221a.43146.43146,0,0,1,.32149.018l3.162,1.47519,3.307-1.11242a.43557.43557,0,0,1,.32149.0182l3.31885,1.54841a.43347.43347,0,0,1-.1835.82628Z"/></g><path class="cls-4" d="M154.51472,149.79861l-.42457-.0872L91.42439,136.81169l6.08044-29.53842,63.09032,12.98713ZM92.44835,136.13738l61.39206,12.6377,5.73079-27.84037L98.17914,108.29722Z"/><path class="cls-4" d="M119.53857,118.89028h34.75179a.9929.9929,0,0,1,.9929.9929v0a.99291.99291,0,0,1-.99291.99291H119.53858a.99291.99291,0,0,1-.99291-.99291v0a.99291.99291,0,0,1,.99291-.99291Z" transform="translate(26.98269 -25.14286) rotate(11.63176)"/><rect class="cls-4" x="120.22208" y="123.32685" width="32.26951" height="0.99291" transform="translate(27.76565 -24.94951) rotate(11.63176)"/><rect class="cls-4" x="94.9358" y="134.376" width="12.90781" height="0.99291" transform="translate(29.27529 -17.6725) rotate(11.63176)"/><rect class="cls-4" x="95.53638" y="131.45845" width="12.90781" height="0.99291" transform="translate(28.69938 -17.8535) rotate(11.63176)"/><rect class="cls-4" x="96.23705" y="128.05463" width="12.90781" height="0.99291" transform="translate(28.02749 -18.06467) rotate(11.63176)"/><rect class="cls-4" x="97.74916" y="125.29993" width="29.29081" height="0.86694" transform="translate(-33.42059 210.46455) rotate(-78.36637)"/><circle class="cls-4" cx="121.13672" cy="135.89616" r="1.48936"/><circle class="cls-4" cx="125.90475" cy="136.87765" r="1.48936"/><circle class="cls-4" cx="130.67279" cy="137.85915" r="1.48936"/><circle class="cls-4" cx="135.44083" cy="138.84064" r="1.48936"/><circle class="cls-4" cx="140.20886" cy="139.82213" r="1.48936"/><circle class="cls-4" cx="144.9769" cy="140.80362" r="1.48936"/><path class="cls-13" d="M233.74152,148.141l-16.4634-3.20492a5.233,5.233,0,0,1-4.13325-6.17341c1.282-6.33092,3.08947-14.259,4.44336-16.20124,2.75287-3.94922,8.37165-5.126,9.35444-10.17432a13.02145,13.02145,0,0,0-23.477-10.02528c-6.44284,8.68571,1.04328,12.25316,3.16681,18.45387.8625,2.51846-.69672,10.94137-1.87586,16.45591a5.23032,5.23032,0,0,1-6.11969,4.03552l-17.3044-3.3686a2.01387,2.01387,0,0,0-2.36159,1.592l-1.17932,6.05832a2.01374,2.01374,0,0,0,1.59193,2.36143l.5569.10838a.00733.00733,0,0,1,.00157.01418,2.09861,2.09861,0,0,0-1.19631,1.5112l-.20518,1.05411a2.11164,2.11164,0,0,0,1.66925,2.47619l48.8797,9.51533a2.11167,2.11167,0,0,0,2.47626-1.66925l.20517-1.054a2.09787,2.09787,0,0,0-.542-1.84939.00733.00733,0,0,1,.00678-.01256l.55689.10839a2.01389,2.01389,0,0,0,2.3615-1.592l1.1794-6.05832A2.01384,2.01384,0,0,0,233.74152,148.141Z"/><path class="cls-3" d="M224.211,108.06782c-.98278,5.04845-6.60157,6.22523-9.35443,10.1744-2.33787,3.35385-4.29357,21.532-4.29357,21.532l-9.67547-1.81633s4.33041-17.61539,3.0133-21.46137c-1.66547-4.8632-6.62952-8.10659-5.58547-13.46976a13.19088,13.19088,0,0,1,25.89564,5.0411Z"/><rect class="cls-14" x="175.12059" y="138.62656" width="57.42048" height="10.19969" rx="2.0054" transform="translate(31.21944 -36.30025) rotate(11.01598)"/><rect class="cls-3" x="175.41294" y="148.31275" width="54.02058" height="5.28873" rx="2.10325" transform="translate(32.57517 -35.89805) rotate(11.01598)"/></svg>