<svg xmlns="http://www.w3.org/2000/svg" viewBox="0 0 48 32"><defs><style>.cls-1{fill:#e6e6e6;}.cls-2{fill:#006095;}.cls-3{fill:#fff;}</style></defs><g id="V2"><rect class="cls-1" x="-0.00003" width="48" height="32" rx="3"/><path d="M7.76471,19.33419c0-.64906-.33944-.60649-.66461-.61336v-.18758c.28183.01375.57089.01375.8534.01375.3035,0,.71584-.01375,1.25129-.01375a2.63234,2.63234,0,0,1,2.89209,2.52637c0,.71461-.41906,2.51161-2.97926,2.51161-.3685,0-.70895-.01425-1.04857-.01425-.32516,0-.64378.00688-.969.01425v-.18774c.4335-.04342.64379-.05784.66461-.54866ZM8.4735,22.7195c0,.5557.39823.62057.75229.62057a2.01234,2.01234,0,0,0,2.07547-2.252,2.17077,2.17077,0,0,0-2.26342-2.32354c-.29695,0-.4335.02112-.56434.02883Zm3.877.66415h.13722c.20222,0,.347,0,.347-.2387V21.18936c0-.31732-.10833-.36141-.37622-.5049v-.11567c.33995-.10158.74523-.238.77378-.25966a.25732.25732,0,0,1,.13034-.03654c.03578,0,.05072.04342.05072.10158V23.145c0,.2387.15906.2387.36179.2387h.12261v.18775c-.24606,0-.49934-.01442-.759-.01442-.2605,0-.521.007-.78823.01442Zm.77379-4.22229a.354.354,0,1,1,0-.70807.35391.35391,0,0,1,.35422.34717A.36085.36085,0,0,1,13.12429,19.16136Zm1.46057,2.07109c0-.26687-.08-.33879-.41906-.47591v-.13712a9.77613,9.77613,0,0,0,.95434-.34683c.0215,0,.04266.01475.04266.07208V20.814a2.124,2.124,0,0,1,1.25248-.54145c.61422,0,.83106.44758.83106,1.01065V23.145c0,.2387.15889.2387.36161.2387h.13017v.18775c-.25362,0-.50673-.01442-.7664-.01442-.26067,0-.52117.007-.78134.01442v-.18775h.13c.20289,0,.34684,0,.34684-.2387V21.2762c0-.41187-.25194-.61353-.66479-.61353a1.93369,1.93369,0,0,0-.83963.34632v2.136c0,.2387.16007.2387.36263.2387h.13v.18775c-.25312,0-.50657-.01442-.7669-.01442-.26,0-.52084.007-.78084.01442v-.18775h.1305c.20239,0,.34667,0,.34667-.2387Zm3.70316.347a1.75579,1.75579,0,0,0,0,.41858,1.20623,1.20623,0,0,0,1.06251,1.24818,1.38687,1.38687,0,0,0,.97668-.48328l.10111.10108a1.696,1.696,0,0,1-1.33746.81552,1.45025,1.45025,0,0,1-1.38146-1.57338c0-1.41481.95418-1.83355,1.46007-1.83355a1.14719,1.14719,0,0,1,1.2224,1.133.892.892,0,0,1-.00638.13042l-.06567.04341Zm1.28018-.23116c.18073,0,.20172-.094.20172-.18054a.61209.61209,0,0,0-.62917-.66382c-.44089,0-.74457.324-.83123.84436Zm.99046,2.03537H20.754c.20172,0,.3465,0,.3465-.2387V21.11728c0-.22362-.26722-.2672-.37589-.32487v-.10795c.5279-.224.81729-.41187.8833-.41187.04249,0,.064.02162.064.09421v.6494h.01545c.18006-.28145.4844-.74361.92529-.74361a.39393.39393,0,0,1,.412.38253.35059.35059,0,0,1-.33944.36863c-.22507,0-.22507-.17367-.47785-.17367a.61.61,0,0,0-.52789.59945V23.145c0,.2387.14428.2387.347.2387h.40478v.18775c-.39789-.00737-.70055-.01442-1.01195-.01442-.29645,0-.60029.007-.86062.01442Zm2.78409-.81586a.95215.95215,0,0,0,.91151.88074.51039.51039,0,0,0,.585-.51228c0-.8519-1.576-.57783-1.576-1.73951a.99347.99347,0,0,1,1.121-.92415,1.90269,1.90269,0,0,1,.82384.20971l.05106.73556h-.16645a.74172.74172,0,0,0-.78823-.71411.50784.50784,0,0,0-.564.47624c0,.845,1.67774.5847,1.67774,1.71772,0,.47624-.38329.982-1.24407.982a1.90711,1.90711,0,0,1-.882-.24541l-.07978-.83011Zm8.60555-2.72836h-.18039A1.37534,1.37534,0,0,0,30.22033,18.656a2.0591,2.0591,0,0,0-2.04,2.28766,2.35349,2.35349,0,0,0,2.15542,2.50491,1.47,1.47,0,0,0,1.454-1.24885l.166.04325-.166,1.05372a4.05888,4.05888,0,0,1-1.5988.38287,2.5713,2.5713,0,0,1-2.76175-2.71394,2.6564,2.6564,0,0,1,2.74042-2.54095,5.22446,5.22446,0,0,1,1.70647.3832Zm.26084,3.54422h.13672c.20306,0,.34784,0,.34784-.2387V19.12549c0-.46953-.1085-.484-.38328-.56324v-.1155a4.59539,4.59539,0,0,0,.74473-.31062.76757.76757,0,0,1,.15855-.07962c.044,0,.05862.04375.05862.10158V23.145c0,.2387.15889.2387.36161.2387H33.756v.18775c-.245,0-.49833-.01442-.75867-.01442-.26017,0-.52051.007-.78823.01442Zm4.64323-.2097c0,.13042.07927.13729.202.13729.087,0,.195-.00687.28939-.00687v.15187a7.36561,7.36561,0,0,0-1.04168.22345l-.03645-.02179v-.58436a1.95238,1.95238,0,0,1-1.28035.60615.77909.77909,0,0,1-.79511-.85861V20.973c0-.18774-.02873-.36828-.43334-.40416v-.13728c.26067-.007.83828-.05029.93268-.05029.08011,0,.08011.05029.08011.2092v1.86171c0,.21691,0,.83748.62867.83748a1.61456,1.61456,0,0,0,.87457-.43969V20.90758c0-.144-.34684-.22312-.60667-.29537V20.4823c.65017-.04359,1.05579-.10108,1.12768-.10108.05845,0,.05845.05029.05845.13008Zm1.4389-2.38154a1.82763,1.82763,0,0,1,1.07763-.51982,1.406,1.406,0,0,1,1.34451,1.51589,1.824,1.824,0,0,1-1.72864,1.89121,2.1374,2.1374,0,0,1-1.00489-.25262l-.21667.16562-.15133-.07912a8.53855,8.53855,0,0,0,.10094-1.28473V19.12549c0-.46953-.109-.484-.38362-.56324v-.1155a4.58137,4.58137,0,0,0,.74507-.31062.74928.74928,0,0,1,.15939-.07962c.04334,0,.05761.04375.05761.10158Zm0,1.963a.77728.77728,0,0,0,.74473.73674c.774,0,1.09912-.75819,1.09912-1.40089a1.37706,1.37706,0,0,0-1.15673-1.42855,1.11386,1.11386,0,0,0-.68712.33945ZM7.09187,27.76771h.05542c.14143,0,.29091-.01911.29091-.22362V25.48675c0-.20484-.14948-.22429-.29091-.22429H7.09187v-.11784c.15351,0,.38966.01542.583.01542.19652,0,.43233-.01542.61725-.01542v.11784H8.23685c-.14109,0-.29091.01945-.29091.22429v2.05734c0,.20451.14982.22362.29091.22362H8.2921v.11835c-.18878,0-.42544-.01543-.62144-.01543-.193,0-.42528.01543-.57879.01543Zm3.9037-.65577.0079-.00771V25.63175a.32441.32441,0,0,0-.34247-.36929h-.08667v-.11784c.18509,0,.36615.01559.55091.01559.16124,0,.32315-.01559.48406-.01559v.11784h-.05862c-.16578,0-.3507.03152-.3507.49871v1.78728a2.6031,2.6031,0,0,0,.02334.39628h-.14948L9.04758,25.69026v1.61831c0,.34163.06635.45914.36968.45914h.06668v.11835c-.169,0-.33793-.01543-.5074-.01543-.17653,0-.35776.01543-.535.01543v-.11835h.05509c.27142,0,.35389-.18423.35389-.498V25.61549a.3527.3527,0,0,0-.35776-.353H8.44159v-.11784c.14931,0,.30283.01559.452.01559.11824,0,.23262-.01559.35053-.01559Zm1.20309-1.771c-.2956,0-.30669.07074-.36581.35706h-.11791c.01529-.1098.03527-.2196.0472-.33375a2.30611,2.30611,0,0,0,.02351-.33342H11.88c.03175.118.13.11382.23683.11382h2.02978c.10649,0,.20458-.00386.21281-.12187l.09389.01576c-.01529.10611-.03124.21188-.04317.31816-.00722.10611-.00722.21222-.00722.318l-.11824.04358c-.00807-.14517-.02789-.37734-.29125-.37734h-.6453v2.08936c0,.30291.1379.33744.32635.33744h.07474v.11835c-.15334,0-.429-.01543-.6411-.01543-.23615,0-.51177.01543-.66545.01543v-.11835h.07474c.21717,0,.32668-.01928.32668-.32923V25.34091Zm2.38049,2.4268h.05526c.14159,0,.29124-.01911.29124-.22362V25.48675c0-.20484-.14965-.22429-.29124-.22429h-.05526v-.11784c.23951,0,.64966.01542.97953.01542.331,0,.7397-.01542,1.00709-.01542-.00672.16864-.00286.4283.00856.601l-.11858.03151c-.019-.25513-.066-.45931-.47952-.45931h-.54637v1.02859h.4676c.236,0,.28754-.1331.31089-.34566h.11774q-.0116.23032-.01176.45948c0,.14969.004.29872.01176.44791l-.11774.0233c-.02335-.23536-.03527-.38857-.3072-.38857h-.47129v.91493c0,.2553.22725.2553.47919.2553.47246,0,.68073-.03168.799-.47875l.11.027c-.05139.2087-.09842.41622-.13336.62476-.25227,0-.70475-.01543-1.05848-.01543-.35456,0-.82283.01543-1.04705.01543Zm2.77-2.207c0-.28648-.15738-.29822-.27965-.29822H16.9986v-.118c.126,0,.36984.01576.61.01576.23581,0,.42493-.01576.63337-.01576.49548,0,.93671.13344.93671.69165a.742.742,0,0,1-.54688.69131l.67268,1.00461a.4364.4364,0,0,0,.38177.23552v.11852c-.13,0-.256-.01543-.38564-.01543-.12193,0-.24824.01543-.36967.01543a10.90747,10.90747,0,0,1-.8188-1.273H17.853v.84083c0,.30274.14126.31364.322.31364h.071v.11852c-.22473,0-.45215-.01543-.67671-.01543-.18912,0-.374.01543-.57072.01543v-.11852h.07088c.14612,0,.27965-.06588.27965-.21138Zm.50387.91091h.19215c.39386,0,.60583-.14886.60583-.61253a.53645.53645,0,0,0-.57459-.573,2.01519,2.01519,0,0,0-.22339.01559Zm4.50484.64035.007-.00771V25.63175a.324.324,0,0,0-.3418-.36929h-.08633v-.11784c.18493,0,.36531.01559.55074.01559.16158,0,.32214-.01559.48473-.01559v.11784h-.05946c-.1651,0-.35019.03152-.35019.49871v1.78728a2.58082,2.58082,0,0,0,.02318.39628h-.14915l-2.02643-2.25447v1.61831c0,.34163.06668.45914.36968.45914h.06685v.11835c-.169,0-.33827-.01543-.50724-.01543-.1777,0-.35859.01543-.53545.01543v-.11835h.05458c.27193,0,.35456-.18423.35456-.498V25.61549a.35252.35252,0,0,0-.35792-.353H19.804v-.11784c.149,0,.30316.01559.45265.01559.11707,0,.23161-.01559.35-.01559Zm1.24709.21255a1.55953,1.55953,0,0,0-.08734.3061c0,.118.16544.13712.29494.13712h.044v.11835c-.15771-.00855-.31845-.01526-.477-.01526-.14142,0-.28217.00671-.42443.01526v-.11835H22.979a.35539.35539,0,0,0,.34163-.25547l.63035-1.80187a3.33964,3.33964,0,0,0,.14578-.48764,2.01182,2.01182,0,0,0,.35776-.1683.08562.08562,0,0,1,.0314-.00821.02744.02744,0,0,1,.02789.01207c.01176.03135.02284.06672.03561.09806l.7239,2.05415c.047.13729.09389.28246.14478.40081a.25041.25041,0,0,0,.26034.1564h.02351v.11835c-.177-.00855-.35439-.01526-.54284-.01526-.19265,0-.39.00671-.59072.01526v-.11835H24.612c.09,0,.244-.01526.244-.11366a1.25057,1.25057,0,0,0-.07945-.28279l-.153-.45545h-.8932Zm.57425-1.74h-.00806l-.366,1.11156h.73532Zm1.69588-.24357c-.29527,0-.307.07074-.36615.35706h-.11824c.01546-.1098.03544-.2196.0477-.33375a2.354,2.354,0,0,0,.023-.33342h.0949c.03124.118.13.11382.23581.11382h2.0308c.10581,0,.20407-.00386.21213-.12187l.09422.01576c-.01511.10611-.0309.21188-.04266.31816-.00873.10611-.00873.21222-.00873.318l-.11774.04358c-.00722-.14517-.027-.37734-.29074-.37734h-.64546v2.08936c0,.30291.13806.33744.32651.33744h.07491v.11835c-.15352,0-.4288-.01543-.64144-.01543-.23564,0-.51177.01543-.66512.01543v-.11835h.07475c.21683,0,.32685-.01928.32685-.32923V25.34091Zm2.3993,2.4268h.05509c.14209,0,.29091-.01911.29091-.22362V25.48675c0-.20484-.14882-.22429-.29091-.22429h-.05509v-.11784c.15385,0,.3895.01542.582.01542.19735,0,.43333-.01542.61859-.01542v.11784h-.05509c-.14192,0-.29174.01945-.29174.22429v2.05734c0,.20451.14982.22362.29174.22362h.05509v.11835c-.18912,0-.42527-.01543-.62178-.01543-.19316,0-.42494.01543-.57879.01543ZM31.04417,25.086a1.37912,1.37912,0,0,1,1.50744,1.35513A1.44181,1.44181,0,0,1,31.0645,27.9449a1.38888,1.38888,0,0,1-1.472-1.40978A1.42987,1.42987,0,0,1,31.04417,25.086Zm.05946,2.68612c.76354,0,.8964-.672.8964-1.2445,0-.5743-.30989-1.26913-.96342-1.26913-.6888,0-.8932.61286-.8932,1.13855C30.14341,27.1,30.46606,27.77207,31.10363,27.77207Zm4.09955-.66013.00806-.00771V25.63175a.32466.32466,0,0,0-.343-.36929h-.08532v-.11784c.18425,0,.36548.01559.54973.01559.16208,0,.32332-.01559.4849-.01559v.11784h-.05946c-.16493,0-.35019.03152-.35019.49871v1.78728a2.51749,2.51749,0,0,0,.02368.39628h-.14931l-2.02694-2.25447v1.61831c0,.34163.067.45914.36968.45914h.06719v.11835c-.16931,0-.3381-.01543-.50741-.01543-.177,0-.35859.01543-.53579.01543v-.11835h.0556c.27192,0,.35372-.18423.35372-.498V25.61549a.35193.35193,0,0,0-.35792-.353H32.649v-.11784c.14982,0,.30334.01559.45265.01559.11791,0,.23179-.01559.3502-.01559Zm1.24659.21255a1.64013,1.64013,0,0,0-.08633.3061c0,.118.16577.13712.29477.13712h.044v.11835c-.15754-.00855-.31912-.01526-.4765-.01526-.14209,0-.28318.00671-.42426.01526v-.11835h.02233a.35577.35577,0,0,0,.34247-.25547l.63052-1.80187a3.19593,3.19593,0,0,0,.14495-.48764,2.019,2.019,0,0,0,.35876-.1683.08232.08232,0,0,1,.03107-.00821c.01176,0,.01932,0,.02721.01207.01193.03135.024.06672.036.09806l.72356,2.05415c.0472.13729.09423.28246.146.40081a.24954.24954,0,0,0,.25967.1564h.024v.11835c-.17736-.00855-.35456-.01526-.54368-.01526-.19232,0-.3895.00671-.59021.01526v-.11835h.0435c.08986,0,.24438-.01526.24438-.11366a1.26285,1.26285,0,0,0-.07961-.28279l-.15284-.45545h-.89338Zm.57509-1.74H37.017L36.65048,26.696h.7365ZM39.53938,27.501c0,.1574.10934.20417.2353.22027a2.86246,2.86246,0,0,0,.52-.00805.563.563,0,0,0,.37723-.21222.89338.89338,0,0,0,.12211-.2828h.114c-.04316.22379-.09842.44423-.14595.66785-.34533,0-.69283-.01526-1.03816-.01526-.34683,0-.69266.01526-1.039.01526v-.11835h.05425c.14226,0,.29611-.01911.29611-.26285V25.48659c0-.20468-.15385-.22413-.29611-.22413H38.685v-.11784c.2081,0,.413.01559.62128.01559.20138,0,.39773-.01559.59861-.01559v.11784h-.09894c-.14914,0-.26654.00436-.26654.21206Z"/><path class="cls-2" d="M25.49277,17.5202a7.15348,7.15348,0,0,0,7.20431-6.81584A7.03043,7.03043,0,0,0,25.49277,3.7691H22.25153a6.7896,6.7896,0,0,0-6.94866,6.93526,6.89624,6.89624,0,0,0,6.94866,6.81584h3.24124"/><path class="cls-3" d="M23.69721,14.35668V6.90878a3.98428,3.98428,0,0,1,0,7.4479m-5.42759-3.72421a3.9969,3.9969,0,0,1,2.566-3.72353v7.44622a3.99474,3.99474,0,0,1-2.566-3.72269m3.99706-6.295a6.29447,6.29447,0,1,0,6.30711,6.295,6.30156,6.30156,0,0,0-6.30711-6.295"/></g></svg>