<svg xmlns="http://www.w3.org/2000/svg" viewBox="0 0 329.53 86.03"><defs><style>.geotrust-cls-1{fill:#006cb1}.geotrust-cls-1,.geotrust-cls-2,.geotrust-cls-3,.geotrust-cls-4,.geotrust-cls-5{fill-rule:evenodd}.geotrust-cls-2{fill:#f37029}.geotrust-cls-3{fill:#2d2e2f}.geotrust-cls-4{fill:#fff}.geotrust-cls-5{fill:#f37121}.geotrust-cls-6{font-size:25px;fill:#231f20;font-family:Tahoma,Tahoma}</style></defs><title>Asset 1</title><g id="Layer_2" data-name="Layer 2"><g id="Layer_1-2" data-name="Layer 1"><path class="geotrust-cls-1" d="M38.2 20c8.32-5.68 17.17-7.89 24.52-6.81V0H0v63.31h21.45c-.25-.44-.49-.89-.71-1.36C14.79 49.42 22.61 30.65 38.2 20z"/><path class="geotrust-cls-2" d="M62.37 20.44A30 30 0 0 0 32.93 55.9 6.25 6.25 0 0 0 37 60.82a7.14 7.14 0 0 0 1.85.52 15.84 15.84 0 0 0 9.6-2.49A22.44 22.44 0 0 0 57.52 47c-5.26.61-10.35 1.4-15.24 2.33l.1-9.33L76 37.73l-.24 31.73-10.16.69c0-.33.1-.67.15-1q.59-4 1-8.14c.15-1.59.29-3.18.41-4.79a34.71 34.71 0 0 1-4.38 4.75 36.58 36.58 0 0 1-4.95 3.74c-1.05.66-2.14 1.27-3.27 1.84a36.15 36.15 0 0 1-7 2.6 45.82 45.82 0 0 1-7.94.82 30 30 0 1 0 22.7-49.49z"/><path class="geotrust-cls-3" d="M144.2 61.32c-.36 4.52 1.49 9.19 6.47 9.19 3.8 0 5.7-1.49 6.26-5.24h5.13c-.77 5.85-5.29 8.78-11.44 8.78-8.26 0-11.55-5.85-11.55-13.44s3.8-13.86 12-13.86c7.69.16 11.34 5 11.34 12.16v2.41zm13-3.39c.1-4.31-1.84-7.65-6.57-7.65-4.06 0-6.47 3.44-6.47 7.65zm34.26 2.47c0 8-4.36 13.65-12.83 13.65S165.8 68.4 165.8 60.4s4.36-13.65 12.83-13.65 12.83 5.65 12.83 13.65zm-12.83 10.1c5.8 0 7.7-4.62 7.7-10.11s-1.9-10.11-7.7-10.11-7.7 4.62-7.7 10.11 1.9 10.11 7.7 10.11z"/><path class="geotrust-cls-3" d="M196.9 43.41h-11.34v-7.18h33.19v7.18h-11.59v29.86H196.9V43.41z"/><path class="geotrust-cls-3" d="M224.19 52.34h.1c1.13-4.26 4.31-5.7 8.62-5.59V55h-2.05c-5.08 0-6.82 3.08-6.67 8v10.27h-9.75V54.13a62.23 62.23 0 0 0-.31-6.62H224l.15 4.82zm30.74 18.11a9.84 9.84 0 0 1-8.06 3.55c-5.54 0-9.65-3.59-9.65-9.29v-17.2H247v15.14c.1 2.51.72 5.23 3.75 5.23 4.82 0 4.2-5.28 4.2-5.59V47.51h9.75v19.14a62.62 62.62 0 0 0 .31 6.62h-9.9l-.16-2.82zM285 55.47a3.18 3.18 0 0 0-.62-2.16 3.38 3.38 0 0 0-2.67-.92 2.11 2.11 0 0 0-2.31 2.31c0 1.9 4 1.8 10.06 3.69 3.08 1 5.18 2.87 5.18 7.08 0 6.82-6.41 8.57-12.32 8.57-6.31 0-12.47-1.28-12.42-9.13h9.24a2.82 2.82 0 0 0 .67 2.31 3.11 3.11 0 0 0 2.31 1.18c1.9 0 3.28-.72 3.28-2.36 0-4.57-15.24-1.85-15.24-11.19 0-6.36 6.77-8.11 11.91-8.11 6.11 0 11.75 1.59 12.16 8.72zm17.29-7.96v-3.9l9.75-3.7v7.59h5.64v6.16H312v10.22c0 .67-.41 4 1.85 4a29.62 29.62 0 0 0 3.75-.15v5.8a27.54 27.54 0 0 1-5.23.51c-6.62 0-10.62-.92-10.11-8.83V53.67h-5v-6.16zm27.24 2.63a3.54 3.54 0 0 1-7.09 0 3.45 3.45 0 0 1 1-2.52 3.54 3.54 0 0 1 6 2.52zm-.84 0a2.76 2.76 0 0 0-.79-2 2.6 2.6 0 0 0-3.82 0 2.82 2.82 0 0 0 0 3.91 2.6 2.6 0 0 0 3.82 0 2.76 2.76 0 0 0 .79-2zM326.42 52v-.67a1.43 1.43 0 0 0-.15-.69.46.46 0 0 0-.41-.29h-.26V52h-.91v-3.8h1.47a1.42 1.42 0 0 1 .89.23.72.72 0 0 1 .3.6v.33a.76.76 0 0 1-.17.51.78.78 0 0 1-.43.26 1.11 1.11 0 0 1 .55.57 1.79 1.79 0 0 1 .15.68V52zm.09-2.61v-.15a.47.47 0 0 0-.11-.3.32.32 0 0 0-.26-.13h-.54v1h.54a.34.34 0 0 0 .28-.11.54.54 0 0 0 .09-.34z"/><path class="geotrust-cls-4" d="M103.67 52c0 18.77-17.6 34-39.29 34S25.1 70.79 25.1 52s17.6-34 39.29-34 39.29 15.23 39.29 34z"/><path class="geotrust-cls-3" d="M128.34 45.46c-.92-4.41-4.77-5.59-8.73-5.59-9.08 0-12.37 8-12.16 14.88.41 9.49 3.28 14.67 13.9 14.88a23.93 23.93 0 0 0 7.39-1.18V58h-8.42v-4.43h13.55v18.32A44.41 44.41 0 0 1 121.16 74c-5.24 0-9.49-.67-13.55-4.26s-5.54-9.8-5.54-15a24.07 24.07 0 0 1 3.18-11.39c3.23-5.65 8.67-7.9 15-7.9s13.19 2.87 13.5 10z"/><path class="geotrust-cls-5" d="M62.55 20.44a30 30 0 0 0-30 30 30.25 30.25 0 0 0 .51 5.51 6.25 6.25 0 0 0 4.06 4.93 7.14 7.14 0 0 0 1.85.52 15.84 15.84 0 0 0 9.6-2.49A22.44 22.44 0 0 0 57.71 47c-5.26.61-10.35 1.4-15.24 2.33l.09-9.33 33.64-2.27-.2 31.73-10.16.69.15-1q.59-4 1-8.14c.15-1.59.29-3.18.41-4.79a34.72 34.72 0 0 1-4.4 4.7 36.43 36.43 0 0 1-5 3.74c-1.05.66-2.14 1.27-3.27 1.84a36.12 36.12 0 0 1-7 2.6 45.79 45.79 0 0 1-7.94.82 30 30 0 1 0 22.7-49.49z"/><text class="geotrust-cls-6" transform="translate(104.39 28.87)">SECURED BY</text></g></g></svg>