<svg xmlns="http://www.w3.org/2000/svg" xmlns:xlink="http://www.w3.org/1999/xlink" viewBox="0 0 48 32"><defs><style>.cls-1{fill:#e6e6e6;}.cls-2{fill:url(#linear-gradient);}.cls-3{fill:url(#linear-gradient-2);}.cls-4{fill:url(#linear-gradient-3);}.cls-5{fill:url(#linear-gradient-4);}.cls-6{fill:url(#linear-gradient-5);}</style><linearGradient id="linear-gradient" x1="-1353.1327" y1="717.83462" x2="-1352.32281" y2="717.83462" gradientTransform="matrix(12.5258, 0, 0, -12.5258, 16979.38133, 9009.01379)" gradientUnits="userSpaceOnUse"><stop offset="0" stop-color="#007940"/><stop offset="0.229" stop-color="#00873f"/><stop offset="0.743" stop-color="#40a737"/><stop offset="1" stop-color="#5cb531"/></linearGradient><linearGradient id="linear-gradient-2" x1="-1353.13272" y1="717.95988" x2="-1352.32352" y2="717.95988" xlink:href="#linear-gradient"/><linearGradient id="linear-gradient-3" x1="-1353.13272" y1="718.09775" x2="-1352.32281" y2="718.09775" xlink:href="#linear-gradient"/><linearGradient id="linear-gradient-4" x1="-1354.9458" y1="717.96078" x2="-1354.1234" y2="717.96078" gradientTransform="matrix(12.5258, 0, 0, -12.5258, 16979.38133, 9009.01379)" gradientUnits="userSpaceOnUse"><stop offset="0" stop-color="#1f286f"/><stop offset="0.475" stop-color="#004e94"/><stop offset="0.826" stop-color="#0066b1"/><stop offset="1" stop-color="#006fbc"/></linearGradient><linearGradient id="linear-gradient-5" x1="-1354.04358" y1="717.95898" x2="-1353.24481" y2="717.95898" gradientTransform="matrix(12.5258, 0, 0, -12.5258, 16979.38133, 9009.01379)" gradientUnits="userSpaceOnUse"><stop offset="0" stop-color="#6c2c2f"/><stop offset="0.173" stop-color="#882730"/><stop offset="0.573" stop-color="#be1833"/><stop offset="0.859" stop-color="#dc0436"/><stop offset="1" stop-color="#e60039"/></linearGradient></defs><g id="V2"><rect class="cls-1" width="48" height="32" rx="3"/><path class="cls-2" d="M32.31862,18.64119h2.3703c.06773,0,.22575-.02257.29347-.02257a1.05753,1.05753,0,0,0,.83525-1.061,1.09567,1.09567,0,0,0-.83525-1.061,1.1923,1.1923,0,0,0-.29347-.02258h-2.3703Z"/><path class="cls-3" d="M34.418,3.67444A4.109,4.109,0,0,0,30.30951,7.783V12.0495H36.1111a2.32073,2.32073,0,0,1,.40634.02258c1.30931.06772,2.28.745,2.28,1.91881a1.91965,1.91965,0,0,1-1.87366,1.87367v.04514c1.33188.0903,2.34772.83525,2.34772,1.98654,0,1.24159-1.12871,2.05426-2.61862,2.05426H30.28694V28.303h6.02733a4.109,4.109,0,0,0,4.10852-4.10851v-20.52Z"/><path class="cls-4" d="M35.52417,14.26178a.96035.96035,0,0,0-.83525-.97069c-.04515,0-.158-.02258-.22574-.02258H32.31862v1.98654h2.14456a.62917.62917,0,0,0,.22574-.02257.96037.96037,0,0,0,.83525-.9707Z"/><path class="cls-5" d="M11.70831,3.67444A4.109,4.109,0,0,0,7.59979,7.783V17.91882a8.12459,8.12459,0,0,0,3.54416.92554,1.9659,1.9659,0,0,0,2.1897-2.03168V12.02693h3.52159V16.7901c0,1.85109-1.15129,3.36357-5.05664,3.36357a17.32949,17.32949,0,0,1-4.22139-.51921v8.64595h6.02733a4.109,4.109,0,0,0,4.10852-4.10852V3.67444Z"/><path class="cls-6" d="M23.06317,3.67444A4.109,4.109,0,0,0,18.95465,7.783v5.37268c1.03842-.8804,2.84436-1.44475,5.75644-1.30931a18.31813,18.31813,0,0,1,3.22812.49664v1.73822a7.81434,7.81434,0,0,0-3.11525-.903c-2.21228-.158-3.54416.92554-3.54416,2.82178,0,1.91882,1.33188,3.00238,3.54416,2.82179a8.1991,8.1991,0,0,0,3.11525-.903V19.657a17.88107,17.88107,0,0,1-3.22812.49664c-2.91208.13544-4.718-.42891-5.75644-1.30931v9.4812H24.982A4.109,4.109,0,0,0,29.0905,24.217V3.67444Z"/></g></svg>