<svg xmlns="http://www.w3.org/2000/svg" viewBox="0 0 100 100"><defs><style>.cls-1{fill:#fd0c15;}.cls-1,.cls-2{fill-rule:evenodd;}.cls-2{fill:#f3ae12;}</style></defs><g id="V2"><path class="cls-1" d="M85.801,46.91833a1.51372,1.51372,0,1,1,1.51229,1.58089A1.52716,1.52716,0,0,1,85.801,46.91833Zm1.51229,1.23713a1.17964,1.17964,0,0,0,1.14561-1.21435,1.19482,1.19482,0,0,0-1.14561-1.21437,1.21642,1.21642,0,0,0,0,2.42872Zm-.20627-.52695h-.3207V46.23093h.57281a.5837.5837,0,0,1,.34362.06861.38562.38562,0,0,1,.16044.34377.35271.35271,0,0,1-.2292.34364l.25211.61864h-.34376l-.20626-.54988H87.107v.5728Zm0-.77893h.18336a.44638.44638,0,0,0,.18321-.02292.17851.17851,0,0,0,.06875-.16044.16332.16332,0,0,0-.06875-.13748.50652.50652,0,0,0-.18321-.02281L87.13,46.50581l-.02294.34377Z"/><path class="cls-1" d="M64.1486,36.3556l-.41239,2.70361a4.57431,4.57431,0,0,0-2.26843-.66448c-1.87884,0-3.20779,1.92468-3.20779,4.65131,0,1.87884.89363,3.02445,2.36,3.02445a4.79046,4.79046,0,0,0,2.15383-.64155l-.43528,2.84112a7.34572,7.34572,0,0,1-2.24552.36667c-2.72653,0-4.42216-2.06217-4.42216-5.36163,0-4.44507,2.33719-7.56119,5.70527-7.56119a4.24031,4.24031,0,0,1,1.14561.13751l1.05406.275c.27489.11458.34365.13751.57282.22918Z"/><path class="cls-1" d="M55.7397,38.21152a.85937.85937,0,0,0-.25207-.02291c-.82491,0-1.30605.43529-2.08509,1.64964l.22917-1.53518H51.34036l-1.558,10.1045h2.5433c.91646-6.18641,1.14562-7.24037,2.36-7.24037h.18321a10.00987,10.00987,0,0,1,.96241-2.93276l-.09156-.02292Z"/><path class="cls-1" d="M40.59442,48.27006a5.56983,5.56983,0,0,1-1.81023.34376c-1.283,0-1.9933-.77907-1.9933-2.2226a6.65576,6.65576,0,0,1,.06877-.91644l.16029-.98532.11458-.80186,1.09977-6.89671h2.52053l-.29793,1.48924h1.306l-.36667,2.45179-1.28311-.00014-.6645,4.21589c-.02276.18336-.04569.32086-.04569.41251,0,.527.27489.75616.87061.75616a1.9162,1.9162,0,0,0,.68739-.09167l-.36655,2.24539Z"/><path class="cls-1" d="M30.60449,41.48793a2.94921,2.94921,0,0,0,1.92469,2.81819c1.0081.50407,1.19143.66448,1.19143,1.12282,0,.61864-.4582.91644-1.44352.91644a6.35489,6.35489,0,0,1-2.26833-.41237l-.34374,2.337.11459.02293.45821.09166c.16043.02292.36667.06863.66449.09154.59571.04585,1.07684.09167,1.39769.09167,2.65789,0,3.89518-1.07687,3.89518-3.36808a2.77288,2.77288,0,0,0-1.78731-2.81832c-1.05393-.50407-1.16853-.61864-1.16853-1.09979q0-.82484,1.23729-.82489a13.86918,13.86918,0,0,1,1.81008.16042l.36668-2.33707a15.72415,15.72415,0,0,0-2.2226-.20626c-2.864.00014-3.84922,1.53523-3.8263,3.41406Z"/><path class="cls-1" d="M84.33469,48.38465H81.92875l.11458-.9852a2.943,2.943,0,0,1-2.337,1.1227c-1.85593,0-3.07028-1.67257-3.07028-4.193,0-3.36822,1.87884-6.20933,4.12422-6.20933A2.89425,2.89425,0,0,1,83.189,39.4945l.54988-3.55141h2.49759L84.33469,48.38465Zm-3.73478-2.36c1.19146,0,2.01623-1.3977,2.01623-3.41391,0-1.28312-.48113-1.99343-1.35186-1.99343-1.14563,0-1.9704,1.42063-1.9704,3.391,0,1.32894.43532,2.01634,1.306,2.01634Z"/><path class="cls-1" d="M48.61382,48.17839a8.41354,8.41354,0,0,1-2.61206.4125c-2.81819,0-4.30758-1.5581-4.30758-4.53672,0-3.48268,1.87884-6.026,4.42216-6.026,2.08511,0,3.414,1.44341,3.414,3.68892a11.09121,11.09121,0,0,1-.32086,2.49748H44.16874a1.87267,1.87267,0,0,0-.02291.32073c0,1.19144.75614,1.7873,2.22261,1.7873a5.94288,5.94288,0,0,0,2.63487-.64155l-.38949,2.49734Zm-1.42061-6.026a4.45067,4.45067,0,0,0,.02291-.50407,1.1426,1.1426,0,0,0-1.19145-1.306c-.802,0-1.37478.64156-1.60381,1.8101Z"/><polygon class="cls-1" points="20.431 48.385 17.911 48.385 19.354 38.83 16.101 48.385 14.382 48.385 14.176 38.899 12.641 48.385 10.281 48.385 12.251 35.966 15.894 35.966 15.986 43.665 18.461 35.966 22.402 35.966 20.431 48.385 20.431 48.385"/><path class="cls-1" d="M26.96141,43.89374c-.275-.02292-.38959-.0457-.57294-.0457-1.4434,0-2.15372.527-2.15372,1.53507a.92435.92435,0,0,0,.91644,1.031c1.00823,0,1.76438-1.031,1.81022-2.5204Zm1.833,4.49091h-2.108l.04584-1.054a3.058,3.058,0,0,1-2.65789,1.21437c-1.37479,0-2.31415-1.1227-2.31415-2.74956,0-2.47456,1.64966-3.89506,4.44507-3.89506a8.63271,8.63271,0,0,1,1.031.06876,3.143,3.143,0,0,0,.09167-.66447c0-.66448-.43531-.91658-1.62674-.91658a7.55035,7.55035,0,0,0-2.108.29794l-.32085.11445-.22905.06875.34364-2.26831a9.75638,9.75638,0,0,1,3.02445-.5499c2.17676,0,3.32237,1.03105,3.32237,2.95571a13.6865,13.6865,0,0,1-.20626,2.01634l-.504,3.59725-.09169.64157L28.863,47.766l-.0457.36654-.02292.2521Z"/><path class="cls-1" d="M68.52492,43.89374c-.2521-.02292-.38949-.0457-.57282-.0457-1.44355,0-2.17676.527-2.17676,1.53507a.92444.92444,0,0,0,.91657,1.031c1.031,0,1.78715-1.031,1.833-2.5204Zm1.833,4.49091h-2.108l.04582-1.054A3.05773,3.05773,0,0,1,65.638,48.54506c-1.37478,0-2.31426-1.1227-2.31426-2.74956,0-2.47456,1.64979-3.89506,4.44506-3.89506a8.9485,8.9485,0,0,1,1.03115.06876,3.14823,3.14823,0,0,0,.09155-.66447c0-.66448-.43531-.91658-1.62674-.91658a7.551,7.551,0,0,0-2.108.29794l-.36655.09167-.22917.06862.34376-2.26833a9.75623,9.75623,0,0,1,3.02445-.54988c2.17664,0,3.32237,1.031,3.32237,2.95571a13.68737,13.68737,0,0,1-.20625,2.01633l-.527,3.57435-.06876.64155-.06874.50407-.04586.34375.02293.32072Z"/><path class="cls-1" d="M77.43784,38.21152a.85819.85819,0,0,0-.252-.02291c-.82491,0-1.306.43529-2.08509,1.64964L75.33,38.30307H73.03873L71.4806,48.40757h2.54332c.91644-6.18641,1.14561-7.24037,2.36-7.24037h.18334a10.73537,10.73537,0,0,1,.96227-2.93276l-.09167-.02292Z"/><path class="cls-2" d="M66.8065,58.21415c0,2.29135-.71031,3.64322-1.833,3.64322-.82489.02279-1.306-.89367-1.306-2.24552,0-1.60383.73323-3.43682,1.87884-3.43682.93935,0,1.26021.98517,1.26021,2.03912Zm2.49747.02292c0-2.54331-1.2602-4.53661-3.6203-4.53661-2.72651,0-4.49077,2.4058-4.49077,5.95722,0,2.54331,1.05393,4.62841,3.62017,4.62841,2.58915,0,4.4909-1.83314,4.4909-6.049Z"/><path class="cls-2" d="M61.99475,51.93608l-.38947,2.70374a4.063,4.063,0,0,0-2.108-.66449c-1.76426,0-3.00154,1.92467-3.00154,4.6512,0,1.87884.82488,3.02445,2.19969,3.02445a4.17259,4.17259,0,0,0,2.01622-.64156l-.4124,2.84125a6.472,6.472,0,0,1-2.108.36653c-2.54332,0-4.14716-2.062-4.14716-5.36149,0-4.44509,2.19957-7.56121,5.3386-7.56121a3.565,3.565,0,0,1,1.05407.13753l.96227.275a2.15721,2.15721,0,0,1,.59573.22907Z"/><path class="cls-2" d="M46.34552,53.76907a.85925.85925,0,0,0-.25211-.02292c-.779,0-1.21435.43543-1.94758,1.64979l.22918-1.53519H42.24408L40.80054,63.96524h2.3601c.84769-6.1864,1.07686-7.24034,2.19956-7.24034a.645.645,0,0,1,.18334.02292,10.83474,10.83474,0,0,1,.89353-2.9329l-.09155-.04585Z"/><path class="cls-2" d="M77.23171,63.87358h-2.2454l.11448-.9852a2.69257,2.69257,0,0,1-2.19956,1.1227c-1.71854,0-2.86416-1.67257-2.86416-4.193,0-3.36819,1.76438-6.20931,3.84934-6.20931a2.62427,2.62427,0,0,1,2.26832,1.39757l.527-3.55141h2.33719L77.23171,63.87358ZM73.726,61.49067c1.12282,0,1.87884-1.39768,1.87884-3.41389,0-1.28313-.43532-1.97052-1.2602-1.97052-1.07688,0-1.833,1.3977-1.833,3.391,0,1.32895.41251,1.9934,1.21437,1.9934Z"/><path class="cls-2" d="M24.166,63.82776a7.30836,7.30836,0,0,1-2.42873.4125c-2.635,0-4.00964-1.55812-4.00964-4.53675,0-3.45974,1.76425-6.026,4.12424-6.026,1.94758,0,3.18486,1.4205,3.18486,3.68894A12.35777,12.35777,0,0,1,24.7388,59.864h-4.697a1.87074,1.87074,0,0,0-.02291.32071c0,1.16853.7103,1.76426,2.08509,1.76426a5.156,5.156,0,0,0,2.45164-.64157L24.166,63.82776Zm-1.32895-6.026c0-.20624.02292-.38946.02292-.504,0-.82489-.41239-1.306-1.1227-1.306-.75614,0-1.28311.64156-1.51228,1.81008Z"/><path class="cls-2" d="M52.30274,63.82776a7.30924,7.30924,0,0,1-2.42871.4125c-2.65791,0-4.03269-1.55812-4.03269-4.53675,0-3.45974,1.76426-6.026,4.12436-6.026,1.94746,0,3.20779,1.4205,3.20779,3.68894a12.35787,12.35787,0,0,1-.29794,2.49748H48.17841a1.86834,1.86834,0,0,0-.02294.32071c0,1.16853.71032,1.76426,2.0851,1.76426a5.15538,5.15538,0,0,0,2.45166-.64157l-.38949,2.52041Zm-1.32895-6.026a4.4499,4.4499,0,0,0,.02291-.504c0-.82489-.41236-1.306-1.12267-1.306-.75617,0-1.28314.64156-1.51229,1.81008Z"/><path class="cls-2" d="M85.297,63.82776a7.51148,7.51148,0,0,1-2.42872.4125c-2.635,0-4.0327-1.55812-4.0327-4.53675,0-3.45974,1.76437-6.026,4.14728-6.026,1.94746,0,3.18475,1.4205,3.18475,3.68894a12.35591,12.35591,0,0,1-.29782,2.49748H81.17261a1.87881,1.87881,0,0,0-.02281.32071c0,1.16853.7102,1.76426,2.085,1.76426a5.15608,5.15608,0,0,0,2.45177-.64157L85.297,63.82776Zm-1.329-6.026c0-.20624.02291-.38946.02291-.504,0-.82489-.41236-1.306-1.12267-1.306-.75617,0-1.28313.64156-1.51231,1.81008Z"/><path class="cls-2" d="M17.15469,54.22742a3.3561,3.3561,0,0,0-1.97037-.57294c-.96241,0-1.71855.20627-1.71855,1.21437,0,1.78729,3.48279,1.12282,3.48279,4.972,0,3.50572-2.29134,4.42216-4.37644,4.42216a7.04337,7.04337,0,0,1-2.77236-.66448l.57281-2.56622a3.63867,3.63867,0,0,0,2.2226.73322c.756,0,1.90176-.20624,1.90176-1.51217,0-2.03924-3.48281-1.2831-3.48281-4.85756,0-3.27642,2.03927-4.23883,4.00978-4.23883a5.22436,5.22436,0,0,1,2.74944.57294l-.61865,2.49748Z"/><path class="cls-2" d="M31.08565,63.82776a4.84706,4.84706,0,0,1-2.108.38959c-2.06205,0-3.34518-2.06219-3.34518-4.58259,0-3.29944,1.85593-5.91139,4.58247-5.91139a4.99156,4.99156,0,0,1,2.22259.66447l-.527,2.40581a2.81086,2.81086,0,0,0-1.58105-.54988c-1.2602,0-2.17665,1.16852-2.17665,3.23058,0,1.19158.66449,2.17675,1.69552,2.17675a2.93614,2.93614,0,0,0,1.58092-.43529l-.34363,2.612Z"/><path class="cls-2" d="M39.92993,61.28443c-.11459.87073-.22916,1.71855-.29792,2.61207H37.3637l.18336-1.62676h-.02293c-.71031,1.09977-1.44355,1.85593-2.74956,1.85593-1.42063,0-2.19956-1.51228-2.19956-3.45974a13.94529,13.94529,0,0,1,.18321-2.108l.64156-4.67423h2.54331l-.68739,4.697a11.23868,11.23868,0,0,0-.16029,1.53522c0,.59572.27488,1.19144.96227,1.14561,1.03115,0,1.64967-1.26021,1.833-2.74945l.71032-4.62841h2.45163l-1.12269,7.40077Z"/><polygon class="cls-2" points="87.657 63.782 87.267 63.782 87.267 62.109 86.718 62.109 86.718 61.743 88.207 61.743 88.207 62.109 87.657 62.109 87.657 63.782 87.657 63.782"/><polygon class="cls-2" points="90.2 63.782 89.834 63.782 89.834 62.086 89.834 62.086 89.49 63.782 89.123 63.782 88.78 62.086 88.78 62.086 88.78 63.782 88.413 63.782 88.413 61.743 88.986 61.743 89.307 63.347 89.33 63.347 89.65 61.743 90.2 61.743 90.2 63.782 90.2 63.782"/></g></svg>