<svg xmlns="http://www.w3.org/2000/svg" viewBox="0 0 48 32"><defs><style>.cls-1{fill:#231f20;}.cls-2{fill:#fff;}.cls-3{fill:#ff5f00;}.cls-4{fill:#eb001b;}.cls-5{fill:#f79e1b;}</style></defs><g id="V2"><rect class="cls-1" width="48" height="32" rx="3"/><g id="Layer_1-2" data-name="Layer 1-2"><path class="cls-2" d="M14.406,27.54148V25.99593a.917.917,0,0,0-.96854-.97885.9531.9531,0,0,0-.86551.4379.90416.90416,0,0,0-.814-.4379.814.814,0,0,0-.72126.36578v-.304h-.53579v2.46257h.54095V26.18654a.577.577,0,0,1,.60276-.65428c.35548,0,.53579.23184.53579.64913v1.37039h.54094V26.18654a.57957.57957,0,0,1,.60277-.65428c.36577,0,.54094.23184.54094.64913v1.37039Zm8.00336-2.46258h-.881v-.747h-.54094v.747h-.48942v.48943h.49972v1.1334c0,.57185.22153.91187.85521.91187a1.257,1.257,0,0,0,.66973-.19062l-.15455-.45851a.9891.9891,0,0,1-.474.1391c-.25759,0-.35547-.16486-.35547-.41214v-1.1231h.87581Zm4.56967-.06182a.72641.72641,0,0,0-.64913.36063V25.0789h-.53063v2.46257h.53579V26.16079c0-.407.17516-.63368.51518-.63368a.87322.87322,0,0,1,.33487.06182l.16486-.51518a1.14636,1.14636,0,0,0-.38124-.067Zm-6.9086.25759a1.84173,1.84173,0,0,0-1.0046-.25759c-.62338,0-1.03037.29881-1.03037.78823,0,.40184.29881.64913.85.72641l.25759.03606c.29366.04121.43276.11849.43276.25759,0,.19062-.19577.29881-.56155.29881a1.31121,1.31121,0,0,1-.81914-.25759l-.25759.41729a1.77732,1.77732,0,0,0,1.06642.31942c.711,0,1.1231-.33487,1.1231-.80369s-.32456-.65943-.86035-.73671l-.25759-.03606c-.23184-.03091-.4173-.07728-.4173-.24214s.17516-.2885.46881-.2885a1.58682,1.58682,0,0,1,.77278.21122Zm14.35042-.25759a.7264.7264,0,0,0-.64913.36063V25.0789h-.53064v2.46257h.53579V26.16079c0-.407.17516-.63368.51518-.63368a.87322.87322,0,0,1,.33487.06182l.16486-.51518a1.14631,1.14631,0,0,0-.38123-.067Zm-6.90345,1.288a1.24416,1.24416,0,0,0,1.19754,1.2891q.05808.00214.11618-.00115a1.28793,1.28793,0,0,0,.88611-.29365l-.25759-.43275a1.08186,1.08186,0,0,1-.644.22152.79081.79081,0,0,1,0-1.57646,1.08193,1.08193,0,0,1,.644.22153l.25759-.43275a1.28793,1.28793,0,0,0-.88611-.29365,1.24416,1.24416,0,0,0-1.31257,1.17178q-.00329.058-.00115.11617Zm5.01788,0V25.0789H31.9995v.29881a.93507.93507,0,0,0-.77278-.36063,1.288,1.288,0,0,0,0,2.57591.93506.93506,0,0,0,.77278-.36062v.2988h.53579Zm-1.99376,0a.73937.73937,0,1,1-.00156.05835Q30.5396,26.3342,30.54153,26.305Zm-6.46554-1.288a1.28808,1.28808,0,1,0,.03606,2.57591h0a1.4966,1.4966,0,0,0,1.02264-.33486l-.25759-.39669a1.17209,1.17209,0,0,1-.71611.25759.68262.68262,0,0,1-.73671-.60277h1.8289v-.20607a1.17071,1.17071,0,0,0-1.16946-1.288Zm0,.47912a.61048.61048,0,0,1,.62336.59734l0,.00027h-1.288a.63368.63368,0,0,1,.65429-.59761Zm13.42309.814V24.08975h-.51519v1.288a.93506.93506,0,0,0-.77277-.36063,1.288,1.288,0,1,0,0,2.57591.93505.93505,0,0,0,.77277-.36062v.2988h.51519Zm-1.98088,0a.73925.73925,0,1,1-.00157.05835Q35.51627,26.33935,35.5182,26.31019Zm-18.09065,0V25.0789h-.53578v.29881a.93508.93508,0,0,0-.77278-.36063,1.288,1.288,0,1,0,0,2.57591.93507.93507,0,0,0,.77278-.36062v.2988h.53579Zm-1.99375,0a.68826.68826,0,1,1-.00664.06359q-.00063-.03181.00149-.06359Z"/><path class="cls-3" d="M25.56065,7.87444a9.26516,9.26516,0,0,0-1.56117-1.56106,9.27573,9.27573,0,0,0,0,14.58224A9.27313,9.27313,0,0,0,25.56065,7.87444Z"/><path class="cls-4" d="M20.45775,13.60577a9.25752,9.25752,0,0,1,3.54173-7.29239,9.27327,9.27327,0,1,0,0,14.58224A9.25756,9.25756,0,0,1,20.45775,13.60577Z"/><path class="cls-5" d="M37.02113,7.872A9.27349,9.27349,0,0,0,23.99948,6.31338a9.273,9.273,0,0,1,0,14.58224,9.27332,9.27332,0,0,0,15.0047-7.28985v-.00259A9.274,9.274,0,0,0,37.02113,7.872Z"/></g></g></svg>