<svg xmlns="http://www.w3.org/2000/svg" viewBox="0 0 48 32"><defs><style>.cls-1{fill:#15195a;}.cls-2{fill:#fff;}</style></defs><g id="V2"><rect class="cls-1" x="0.00004" width="48" height="32" rx="3"/><polygon class="cls-2" points="20.358 10.125 18.445 21.883 21.506 21.883 23.419 10.125 20.358 10.125"/><path class="cls-2" d="M7.53662,11.1778c-.08447-.04157-.16821-.08472-.24975-.12269C7.36768,11.09271,7.45312,11.1366,7.53662,11.1778Z"/><path class="cls-2" d="M8.26758,11.56879c-.09693-.056-.19043-.10877-.28516-.16022Q8.12342,11.48521,8.26758,11.56879Z"/><path class="cls-2" d="M5.7063,10.44836c-.053-.01574-.095-.02826-.13941-.04071C5.60889,10.41937,5.657,10.43365,5.7063,10.44836Z"/><path class="cls-2" d="M5.39185,10.36041c-.0293-.00738-.04786-.01263-.06788-.01739Z"/><path class="cls-2" d="M6.7749,10.83075c-.05737-.02356-.11255-.04681-.16748-.06848C6.66187,10.78381,6.718,10.80731,6.7749,10.83075Z"/><path class="cls-2" d="M6.14478,10.59c-.06812-.02362-.12305-.04114-.18457-.06122C6.02051,10.54852,6.07837,10.567,6.14478,10.59Z"/><path class="cls-2" d="M27.81519,13.38947c0-1.32923,2.981-1.15845,4.291-.43671l.43652-2.52515A8.83552,8.83552,0,0,0,29.78979,9.915c-1.519,0-5.12622.66431-5.12622,3.89209,0,3.03772,4.23365,3.0755,4.23365,4.67041,0,1.59485-3.79712,1.30981-5.0503.30371l-.45532,2.6394a8.57366,8.57366,0,0,0,3.45532.66431c2.08838,0,5.24024-1.082,5.24024-4.02515C32.08716,15.00305,27.81519,14.71838,27.81519,13.38947Z"/><path class="cls-2" d="M7.98242,11.40857c-.15259-.083-.30005-.15906-.4458-.23077Q7.75451,11.285,7.98242,11.40857Z"/><path class="cls-2" d="M7.28687,11.05511c-.17945-.08349-.34913-.15734-.512-.22436Q7.01844,10.931,7.28687,11.05511Z"/><path class="cls-2" d="M6.60742,10.76227q-.24975-.09861-.46264-.17224C6.28589,10.63885,6.44165,10.697,6.60742,10.76227Z"/><path class="cls-2" d="M5.56689,10.40765c-.07153-.02008-.1267-.03509-.175-.04724C5.438,10.372,5.49976,10.389,5.56689,10.40765Z"/><path class="cls-2" d="M8.26758,11.56879c.05932.03436.12085.07513.18091.1112l-.00293-.01129C8.385,11.63226,8.32764,11.60345,8.26758,11.56879Z"/><path class="cls-2" d="M5.324,10.343c-.0498-.012-.08007-.01862-.08007-.01862Z"/><path class="cls-2" d="M5.96021,10.52881c-.09278-.03027-.17725-.05774-.25391-.08045C5.781,10.47058,5.86987,10.49939,5.96021,10.52881Z"/><path class="cls-2" d="M15.86963,10.12543l-2.91821,8.08642-.34522-1.74139.00025.00067-1.03-5.2868a1.31053,1.31053,0,0,0-1.45215-1.0589H5.30054l-.05664.199s.03027.00665.08007.01862c.02.00476.03858.01.06788.01739.04834.01215.10351.02716.175.04724.04444.01245.08643.025.13941.04071.07666.02271.16113.05018.25391.08045.06152.02008.11645.0376.18457.06122q.2124.07369.46264.17224c.05493.02167.11011.04492.16748.06848.16284.067.33252.14087.512.22436.08154.038.16528.08112.24975.12269.14575.07171.29321.14776.4458.23077.09473.05145.18823.10425.28516.16022.06006.03466.11743.06347.178.09991l.00293.01129L11.105,21.88251h3.18921l4.86987-11.75708Z"/><path class="cls-2" d="M40.30542,10.12543H37.84448a1.40668,1.40668,0,0,0-1.41308.87622L31.86694,21.88251h3.19019l.63818-1.74622h3.89136l.35889,1.74622H42.7561Zm-3.728,7.59808,1.6084-4.39978.90479,4.39978Z"/></g></svg>